<?xml version="1.0" encoding="utf-8"?>
<!-- Svg Vector Icons : http://www.onlinewebfonts.com/icon -->
<!DOCTYPE svg PUBLIC "-//W3C//DTD SVG 1.1//EN" "http://www.w3.org/Graphics/SVG/1.1/DTD/svg11.dtd">
<svg version="1.1" xmlns="http://www.w3.org/2000/svg" xmlns:xlink="http://www.w3.org/1999/xlink" x="0px" y="0px" viewBox="0 0 1000 1000" enable-background="new 0 0 1000 1000" xml:space="preserve">
<metadata> Svg Vector Icons : http://www.onlinewebfonts.com/icon </metadata>
<g><path d="M633.3,500c0,74.5-60.8,133.3-133.3,133.3c-74.5,0-133.3-60.8-133.3-133.3c0-17.6,3.9-35.3,9.8-51H304V649c0,25.5,21.6,47,47,47h299.9c25.5,0,47-21.6,47-47V449h-72.5C631.3,464.7,633.3,482.4,633.3,500z"/><path d="M688.2,394.2v-72.5v-9.8h-9.8h-72.5v82.3H688.2z"/><path d="M500,586.2c47,0,86.2-39.2,86.2-86.2c0-19.6-5.9-35.3-15.7-51c-15.7-21.6-41.2-35.3-70.6-35.3c-29.4,0-54.9,13.7-70.6,35.3c-9.8,13.7-15.7,31.4-15.7,51C413.8,547,453,586.2,500,586.2z"/><path d="M500,10C229.5,10,10,229.5,10,500c0,270.5,219.5,490,490,490c270.5,0,490-219.5,490-490C990,229.5,770.5,10,500,10z M745,449V649c0,52.9-43.1,94.1-94.1,94.1H349.1c-52.9,0-94.1-43.1-94.1-94.1V449v-100c0-52.9,43.1-94.1,94.1-94.1H649c52.9,0,94.1,43.1,94.1,94.1v100H745z"/></g>
</svg>