<?xml version="1.0" encoding="utf-8"?>
<!-- Svg Vector Icons : http://www.onlinewebfonts.com/icon -->
<!DOCTYPE svg PUBLIC "-//W3C//DTD SVG 1.1//EN" "http://www.w3.org/Graphics/SVG/1.1/DTD/svg11.dtd">
<svg version="1.1" xmlns="http://www.w3.org/2000/svg" xmlns:xlink="http://www.w3.org/1999/xlink" x="0px" y="0px" viewBox="0 0 1000 1000" enable-background="new 0 0 1000 1000" xml:space="preserve">
<metadata> Svg Vector Icons : http://www.onlinewebfonts.com/icon </metadata>
<g><path d="M915.1,953.6c20.9,0,38.6-7.3,53.1-21.8s21.8-32.2,21.8-53.1v-57.1c0-20.9-7.3-38.6-21.8-53.1s-32.2-21.8-53.1-21.8H84.9c-20.9,0-38.6,7.3-53.1,21.8C17.3,783.1,10,800.8,10,821.6v57.1c0,20.9,7.3,38.6,21.8,53.1c14.5,14.5,32.2,21.8,53.1,21.8H915.1z M915.1,603.4c20.9,0,38.6-7.3,53.1-21.8s21.8-32.2,21.8-53.1v-57.1c0-20.9-7.3-38.6-21.8-53.1c-14.5-14.5-32.2-21.8-53.1-21.8H84.9c-20.9,0-38.6,7.3-53.1,21.8C17.3,432.9,10,450.6,10,471.4v57.1c0,20.9,7.3,38.6,21.8,53.1c14.5,14.5,32.2,21.8,53.1,21.8H915.1z M915.1,253.3c20.9,0,38.6-7.3,53.1-21.8c14.5-14.5,21.8-32.2,21.8-53.1v-57.1c0-20.9-7.3-38.6-21.8-53.1c-14.5-14.5-32.2-21.8-53.1-21.8H84.9c-20.9,0-38.6,7.3-53.1,21.8C17.3,82.7,10,100.4,10,121.3v57.1c0,20.9,7.3,38.6,21.8,53.1C46.3,246,64,253.3,84.9,253.3H915.1z"/></g>
</svg>